<?xml version="1.0" encoding="UTF-8" standalone="no"?>
<svg
   xmlns:dc="http://purl.org/dc/elements/1.1/"
   xmlns:cc="http://creativecommons.org/ns#"
   xmlns:rdf="http://www.w3.org/1999/02/22-rdf-syntax-ns#"
   xmlns:svg="http://www.w3.org/2000/svg"
   xmlns="http://www.w3.org/2000/svg"
   xmlns:sodipodi="http://sodipodi.sourceforge.net/DTD/sodipodi-0.dtd"
   xmlns:inkscape="http://www.inkscape.org/namespaces/inkscape"
   width="1382px"
   height="906.890625px"
   version="1.1"
   id="svg320"
   sodipodi:docname="non-manifold.svg"
   inkscape:version="0.92.5 (2060ec1f9f, 2020-04-08)">
  <metadata
     id="metadata326">
    <rdf:RDF>
      <cc:Work
         rdf:about="">
        <dc:format>image/svg+xml</dc:format>
        <dc:type
           rdf:resource="http://purl.org/dc/dcmitype/StillImage" />
      </cc:Work>
    </rdf:RDF>
  </metadata>
  <defs
     id="defs324" />
  <sodipodi:namedview
     pagecolor="#ffffff"
     bordercolor="#666666"
     borderopacity="1"
     objecttolerance="10"
     gridtolerance="10"
     guidetolerance="10"
     inkscape:pageopacity="0"
     inkscape:pageshadow="2"
     inkscape:window-width="1920"
     inkscape:window-height="1136"
     id="namedview322"
     showgrid="false"
     inkscape:zoom="0.92040521"
     inkscape:cx="465.72208"
     inkscape:cy="430.63524"
     inkscape:window-x="0"
     inkscape:window-y="0"
     inkscape:window-maximized="1"
     inkscape:current-layer="svg320" />
  <path
     class="shape"
     fill="none"
     stroke="#3498DB"
     stroke-width="1.3"
     d="M1282,453.4453125L1281.8594757344072,460.8849547380041L1281.4382368580177,468.31281047429763L1280.7372830851273,475.7171409583488L1279.7582738066296,483.0863025340194L1278.503517971793,490.40879317281366L1276.975960083565,497.67329780695957L1275.179162464724,504.8687320894855L1273.1172839922137,511.9842842310113L1270.7950555335437,519.0094545902243L1268.2177523515697,525.9340927263756L1265.391163771833,532.7484316569497L1262.321560429557,539.4431191012095L1259.0156594311238,546.0092455298559L1255.4805877772478,552.4383688817848L1251.723844402121,558.7225358501234L1247.7532611846482,564.8542996806393L1243.5769632846773,570.826734465537L1239.203329149244,576.6334459539646L1234.6409505215975,582.2685789366607L1229.8985927696706,587.7268212956023L1224.985155831163,593.0034048398618L1219.9096360500862,598.0941030758275L1214.681089155028,602.99522608328L1209.308594603072,607.7036126883902L1203.8012214858418,612.2166201404973L1198.167996166035,616.5321115115348L1192.4178717845775,620.6484410453329L1186.5596997506132,624.5644376888712L1180.6022032993858,628.2793870391356L1174.5539531769741,631.793011937769L1168.4233454861755,635.1054519415245L1162.2185817047898,638.2172418899165L1155.9476508663636,641.1292897827633L1149.6183138742267,643.8428541698422L1143.238089902511,646.3595212429731L1136.81424482278,648.6811818078152L1130.3537815819677,650.8100082988121L1123.8634324464642,652.7484319863347L1117.349653018312,654.4991205104013L1110.8186179225459,656.0649558606473L1104.2762180595496,657.449012907655L1097.7280593128266,658.6545385765502L1091.1794626006258,659.6849317400411L1084.6354651592865,660.5437238949694L1078.1008229468207,661.2345606740497L1071.5800140569725,661.7611842328704L1065.0772430366392,662.1274165414628L1058.596446002992,662.3371435998722L1052.1412964606811,662.3943005881633L1045.7152117241378,662.3028579532082L1039.3213598549596,662.0668084273798L1032.9626670296575,661.6901549679278L1026.6418252585227,661.1768996002781L1020.3613003819507,660.5310331437524L1014.123340276175,659.756525794202L1007.929983205933,658.8573185347373L1001.7830662670701,657.8373153430573L995.6842338674219,656.7003761618047L989.6349461994723,655.4503105968095L983.6364876632267,654.0908723070222L977.6899752024518,652.6257540492909L971.7963665218813,651.0585833408736L965.9564681571776,649.3929187026554L960.1709433733549,647.6322464463957L954.4403198710049,645.7799779699412L948.7649972830368,643.8394475251591L943.1452544477283,641.813910424334L937.5812564467236,639.7065416519065L932.0730613991817,637.5204348496748L926.6206270056117,635.2586016449118L921.2238168370247,632.9239712922438L915.8824063669089,630.5193906015706L910.5960887451982,628.0476241257657L905.3644803148776,625.5113545833626L900.1871258731562,622.9131834928959L895.0635036802612,620.2556319970032L889.9930302198716,617.5411418558214L884.9750647160345,614.7720765905838L880.0089134120979,611.9507227596737L875.0938336177728,609.0792913506789L870.2290375309022,606.1599192732422L865.4136958408859,603.1946709386907L860.6469411209997,600.1855399135657L855.9278710170485,597.1344506352546L851.2555512399382,594.0432601789505L846.6290183698289,590.9137600661326L842.0472824795547,587.747678105668L837.5093295849829,584.5466802594992L833.0141239299182,581.312372525673L828.5606101130711,578.0463028322278L824.1477150644805,574.7499629361445L819.774349878641,571.4247903222276L815.4394115114131,568.07217009738L811.1417843476177,564.6934368763002L806.8803416460141,561.2898766551474L802.6539468681661,557.8627286701982L798.4614548974762,554.4131872389621L794.3017131544659,550.9424035816276L790.1735626141501,547.4514876210826L786.0758387311397,543.9415097600979L782.0073722778887,540.4135026345705L777.9669901012828,536.8684628420135L773.9535158025585,533.30735264474L769.9657703453317,529.7311016474196L766.0025725963121,526.1406084489096L762.0627398030852,522.5367422684541L758.145088013156,518.9203445465207L754.2484324382633,515.2922305207073L750.371587767802,511.6531907772939L746.5133684350267,508.0039927791435L742.6725888395479,504.34538237077663L738.8480635294878,500.67808526154283L735.0386073465215,497.00280848791124L731.2430355368962,493.32024185598414L727.4601638314018,489.6310593654076L723.6888084971529,485.93592061592716L719.9277863639331,482.235472197885L716.1759148277665,478.53034906801275L712.4320118342848,474.8211759119163L708.6948958443902,471.1085684946846L704.9633857846391,467.39313500109193L701.2363009847166,463.6754773668881L697.5124611043199,459.9561926026926L693.7906860517252,456.23587411203226L690.0697958962846,452.5151130050708L686.3486107770692,448.79449940959273L682.6259508098649,445.0746237808099L678.9006359947164,441.35607821155946L675.171486126221,437.63945774446574L671.4373207087824,433.9253616876288L667.6969588790523,430.21439493539737L663.9492193378243,426.5071692957704L660.1929202936683,422.8043048259541L656.4268794206555,419.10643117758286L652.6499138325656,415.41418895308476L648.8608400760392,411.7282310746424L645.0584741452087,408.04922416716704L641.2416315204243,404.3778499566587L637.4091272337785,400.7148066852797L633.559775964237,397.0608105444162L629.6923921652907,393.4165971269366L625.8057902281581,389.78292289979004L621.8987846837013,386.160566698008L617.9701904463444,382.5503312410811L614.0188231034388,378.95304467259143L610.0434992536618,375.36956212385996L606.0430368982055,371.80076730225596L602.0162558886772,368.2475741046707L597.9619784358113,364.7109282565084L593.8790296832822,361.19180897638114L589.7662383510922,357.6912306665046L585.6224374532159,354.21024462858804L581.4464650943811,350.7499408047869L577.2371653510809,347.3114495430348L572.9933892421208,343.8959433858022L568.7139957942293,340.50463888102684L564.3978532084686,337.13879841363615L560.0438401334136,333.7997320557244L555.650847051274,330.48879943305724L551.2177777833554,327.2074116051531L546.7435511214608,323.9570329557332L542.2271025920363,320.73918308982934L537.667386360049,317.555438733304L533.0633772797677,314.4074356299508L528.4140730997668,311.2968704307194L523.7184968296111,308.22550256892964L518.9756992757909,305.19515611462054L514.1847617545461,302.2077216003985L509.3447989892693,299.26515781032504L504.45496220016435,296.36949352249746L499.5144423937908,293.5228291950394L494.52247386001744,290.7273385842211L489.4783378837311,287.98527028237953L484.38136667840354,285.29894916219524L479.2309475482947,282.6707777127249L474.02652728564533,280.1032372513622L468.7676168087013,277.59888899463596L463.45379604577045,275.1603749694313L458.0847190697599,272.79041874485785L452.66011948675134,270.4918259635891L447.1798160811216,268.2674846500634L441.6437187185222,266.1203652714853L436.0518345066461,264.05352052609913L430.4042742121452,262.07008483174195L424.7012589302934,260.1732734862354L418.94312700200896,258.36638146976L413.13034117063154,256.6527818579867L407.26349596841163,255.03592381345683L401.3433253199532,253.51933012150212L395.3707103469047,252.1065942359367L389.34668735495467,250.80137679884052L383.27245598068987,249.60740159803672L377.1493874721003,248.528450925378L370.9790330724568,247.56836029873156L364.7631324729728,246.73101251064264L358.50362229507306,246.02033096710312L352.20264455826566,245.44027228069976L345.86255508456566,244.9948180837241L339.48593178515875,244.68796602863785L333.07558276958576,244.52371994566082L326.6345542121957,244.50607913023515L320.16613790500963,244.63902673677185L313.67387842053955,244.92651725945413L307.1615798025567,245.37246308600345L300.63331169741735,245.98072011625518L294.09341483339887,246.75507244416826L287.5465057506877,247.69921610955052L280.9974806803113,248.81674193431766L274.4515184665337,250.11111746754753L267.9140824241685,251.58566807391054L261.3909210200699,253.24355721124812L254.88806726684027,255.08776595507803L248.41183671675128,257.12107184056595L241.96882394511255,259.3460271059339L235.56589741502455,261.7649364352619L229.21019261974993,264.3798343130432L222.90910340497186,267.19246211750965L216.67027138109347,270.2042450944637L210.50157334558935,273.41626936790703L204.41110664731434,276.82925915791213L198.40717243865953,280.44355438965863L192.49825677755865,284.25908889005905L186.69300955953435,288.27536937963623L181.00022128020242,292.4914554769347L175.42879765078715,296.90594094045025L169.98773211308594,301.5169363785036L164.68607632573378,306.3220536603343L159.53290872028765,311.3183922616802L154.5373012532374,316.5025277749129L149.70828450817737,321.8705028072319L145.05481133060186,327.41782048024095L140.58571920563816,333.13944073034855L136.30969161599637,339.0297795917427L132.235218642934,345.08271162222417L128.37055709656636,351.29157560702436L124.72369048282803,357.6491836470452L121.3022891322521,364.1478337060312L118.11367082997594,370.7793256563567L115.1647622965022,377.5349808258356L112.46206187434018,384.40566500877287L110.01160377636086,391.3818148639775L107.81892424728255,398.453467581307L105.88902997996877,405.6102936572534L104.22636911316431,412.84163257984176L102.83480511694188,420.13653118447013L101.71759384670565,427.48378440605035L100.87736401639495,434.8719781196283L100.3161013069697,442.28953373227245L100.03513628790938,449.7247541640575L100.03513628790938,457.1658708359421L100.3161013069697,464.60109126772744L100.87736401639495,472.0186468803718L101.71759384670565,479.4068405939495L102.83480511694188,486.75409381552976L104.22636911316431,494.0489924201581L105.88902997996877,501.2803313427465L107.81892424728255,508.4371574186931L110.01160377636086,515.5088101360222L112.46206187434007,522.4849599912268L115.1647622965022,529.3556441741641L118.11367082997583,536.1112993436429L121.30228913225221,542.7427912939689L124.72369048282803,549.2414413529549L128.37055709656636,555.5990493929755L132.2352186429339,561.8079133777757L136.30969161599626,567.8608454082572L140.58571920563816,573.7511842696513L145.05481133060186,579.4728045197592L149.70828450817726,585.020122192768L154.53730125323705,590.3880972250868L159.5329087202873,595.5722327383196L164.68607632573367,600.5685713396656L169.98773211308594,605.3736886214965L175.42879765078715,609.9846840595496L181.00022128020225,614.3991695230652L186.69300955953423,618.6152556203637L192.4982567775586,622.631536109941L198.40717243865953,626.4470706103415L204.41110664731434,630.0613658420878L210.50157334558918,633.474355632093L216.67027138109313,636.6863799055361L222.90910340497157,639.6981628824901L229.21019261974993,642.5107906869569L235.56589741502438,645.1256885647381L241.9688239451125,647.5445978940661L248.41183671675122,649.769553159434L254.88806726684004,651.802859044922L261.39092102007,653.6470677887519L267.91408242416856,655.3049569260895L274.4515184665335,656.7795075324524L280.99748068031107,658.0738830656824L287.54650575068734,659.1914088904496L294.0934148333985,660.1355525558316L300.63331169741747,660.9099048837448L307.16157980255656,661.5181619139966L313.67387842053944,661.9641077405458L320.1661379050095,662.2515982632281L326.63455421219555,662.3845458697649L333.07558276958594,662.3669050543392L339.4859317851587,662.2026589713621L345.86255508456543,661.8958069162759L352.2026445582653,661.4503527193003L358.5036222950727,660.8702940328969L364.76313247297276,660.1596124893574L370.97903307245673,659.3222647012684L377.1493874721001,658.362174074622L383.27245598068976,657.2832234019634L389.34668735495455,656.0892482011595L395.3707103469048,654.7840307640632L401.343325319953,653.371294878498L407.2634959684115,651.8547011865433L413.13034117063137,650.2378431420134L418.9431270020086,648.52424353024L424.7012589302933,646.7173515137646L430.404274212145,644.8205401682582L436.05183450664606,642.8371044739008L441.6437187185221,640.7702597285147L447.17981608112166,638.6231403499366L452.6601194867512,636.398799036411L458.08471906975996,634.1002062551422L463.4537960457701,631.7302500305689L468.7676168087012,629.2917360053641L474.0265272856453,626.7873877486378L479.2309475482944,624.2198472872751L484.3813666784034,621.5916758378048L489.47833788373066,618.9053547176206L494.5224738600175,616.1632864157789L499.51444239379066,613.3677958049607L504.45496220016446,610.5211314775024L509.34479898926924,607.6254671896751L514.184761754546,604.6829033996015L518.9756992757909,601.6954688853793L523.718496829611,598.6651224310704L528.4140730997667,595.5937545692807L533.0633772797675,592.4831893700493L537.6673863600487,589.3351862666962L542.2271025920359,586.1514419101709L546.743551121461,582.9335920442667L551.2177777833552,579.6832133948469L555.650847051274,576.4018255669428L560.0438401334135,573.0908929442758L564.3978532084685,569.7518265863639L568.7139957942293,566.3859861189732L572.9933892421207,562.9946816141979L577.2371653510808,559.5791754569652L581.4464650943809,556.1406841952133L585.6224374532158,552.6803803714121L589.7662383510922,549.1993943334954L593.8790296832822,545.6988160236187L597.9619784358111,542.1796967434917L602.0162558886772,538.6430508953292L606.0430368982054,535.0898576977442L610.0434992536617,531.5210628761401L614.0188231034388,527.9375803274086L617.9701904463442,524.340293758919L621.8987846837011,520.7300583019921L625.8057902281579,517.1077021002101L629.6923921652908,513.4740278730633L633.559775964237,509.82981445558386L637.4091272337785,506.17581831472023L641.2416315204242,502.51277504334143L645.0584741452086,498.84140083283296L648.8608400760392,495.16239392535755L652.6499138325655,491.47643604691535L656.4268794206555,487.78419382241714L660.1929202936682,484.08632017404614L663.9492193378243,480.38345570422973L667.6969588790522,476.67623006460286L671.4373207087824,472.9652633123711L675.171486126221,469.2511672555343L678.9006359947164,465.53454678844054L682.6259508098648,461.81600121919024L686.3486107770692,458.09612559040727L690.0697958962846,454.37551199492924L693.790686051725,450.6547508879679L697.5124611043198,446.93443239730743L701.2363009847164,443.2151476331121L704.963385784639,439.4974899989081L708.6948958443902,435.78205650531544L712.4320118342848,432.0694490880836L716.1759148277664,428.3602759319873L719.9277863639331,424.655152802115L723.6888084971528,420.95470438407295L727.4601638314018,417.25956563459243L731.2430355368962,413.57038314401586L735.0386073465213,409.8878165120889L738.8480635294877,406.2125397384573L742.6725888395476,402.54524262922354L746.5133684350268,398.8866322208563L750.3715877678019,395.23743422270616L754.2484324382633,391.5983944792926L758.1450880131559,387.9702804534794L762.0627398030852,384.3538827315459L766.0025725963119,380.75001655109054L769.9657703453316,377.15952335258044L773.9535158025585,373.58327235525996L777.9669901012826,370.0221621579866L782.0073722778886,366.47712236542964L786.0758387311395,362.9491152399022L790.1735626141502,359.4391373789173L794.3017131544658,355.94822141837255L798.4614548974762,352.4774377610379L802.653946868166,349.02789632980193L806.8803416460141,345.6007483448526L811.1417843476173,342.19718812369996L815.4394115114129,338.81845490262015L819.7743498786409,335.4658346777725L824.1477150644803,332.1406620638557L828.560610113071,328.8443221677723L833.0141239299182,325.578252474327L837.5093295849829,322.3439447405008L842.0472824795546,319.14294689433206L846.6290183698289,315.97686493386743L851.2555512399381,312.8473648210496L855.9278710170483,309.75617436474556L860.6469411209998,306.70508508643434L865.4136958408858,303.6959540613094L870.2290375309021,300.73070572675783L875.0938336177726,297.8113336493213L880.008913412098,294.9399022403262L884.9750647160345,292.11854840941623L889.9930302198717,289.3494831441786L895.0635036802611,286.6349930029969L900.1871258731562,283.9774415071041L905.3644803148775,281.3792704166375L910.5960887451981,278.84300087423446L915.8824063669089,276.37123439842935L921.2238168370245,273.9666537077563L926.6206270056116,271.63202335508834L932.0730613991814,269.37019015032536L937.5812564467237,267.1840833480934L943.1452544477282,265.07671457566596L948.7649972830369,263.05117747484087L954.4403198710048,261.1106470300589L960.1709433733548,259.2583785536043L965.9564681571774,257.4977062973446L971.7963665218812,255.83204165912645L977.6899752024518,254.26487095070905L983.6364876632264,252.79975269297782L989.6349461994722,251.44031440319063L995.6842338674221,250.19024883819526L1001.7830662670701,249.05330965694267L1007.9299832059328,248.03330646526277L1014.123340276175,247.13409920579792L1020.3613003819505,246.3595918562476L1026.6418252585227,245.71372539972188L1032.9626670296573,245.20047003207225L1039.3213598549594,244.8238165726203L1045.7152117241378,244.58776704679178L1052.1412964606807,244.49632441183667L1058.5964460029918,244.55348140012785L1065.0772430366392,244.7632084585371L1071.5800140569725,245.1294407671296L1078.1008229468207,245.65606432595024L1084.6354651592865,246.34690110503067L1091.1794626006256,247.20569325995888L1097.7280593128266,248.23608642344982L1104.2762180595491,249.441612092345L1110.8186179225456,250.82566913935264L1117.349653018312,252.3915044895986L1123.8634324464638,254.14219301366523L1130.353781581968,256.08061670118786L1136.81424482278,258.2094431921848L1143.2380899025113,260.5311037570269L1149.6183138742265,263.0477708301578L1155.9476508663636,265.7613352172366L1162.2185817047896,268.67338311008325L1168.4233454861753,271.7851730584754L1174.5539531769737,275.0976130622307L1180.6022032993856,278.6112379608642L1186.5596997506132,282.32618731112876L1192.4178717845775,286.2421839546672L1198.1679961660354,290.3585134884653L1203.8012214858416,294.6740048595027L1209.308594603072,299.1870123116098L1214.681089155028,303.89539891671984L1219.909636050086,308.7965219241724L1224.9851558311627,313.8872201601379L1229.8985927696704,319.1638037043975L1234.640950521597,324.62204606333887L1239.2033291492437,330.25717904603505L1243.5769632846773,336.0638905344628L1247.7532611846482,342.0363253193606L1251.723844402121,348.1680891498767L1255.4805877772474,354.45225611821513L1259.015659431124,360.8813794701441L1262.321560429557,367.44750589879027L1265.391163771833,374.1421933430502L1268.2177523515693,380.95653227362396L1270.7950555335435,387.88117040977545L1273.1172839922137,394.90634076898857L1275.179162464724,402.0218929105141L1276.975960083565,409.2173271930408L1278.503517971793,416.48183182718634L1279.7582738066296,423.80432246598076L1280.7372830851273,431.173484041651L1281.4382368580177,438.5778145257024L1281.8594757344072,446.00567026199553L1282,453.44531249999983"
     id="path2" />
  <circle
     class="sample"
     stroke="none"
     fill="rgb(86, 101, 115)"
     opacity="0.6"
     cx="1288.605501368563"
     cy="444.0813395155908"
     r="3"
     id="circle4" />
  <circle
     class="sample"
     stroke="none"
     fill="rgb(86, 101, 115)"
     opacity="0.6"
     cx="1280.806104632664"
     cy="483.9775226868163"
     r="3"
     id="circle6" />
  <circle
     class="sample"
     stroke="none"
     fill="rgb(86, 101, 115)"
     opacity="0.6"
     cx="1262.1630882451668"
     cy="520.8007301602507"
     r="3"
     id="circle8" />
  <circle
     class="sample"
     stroke="none"
     fill="rgb(86, 101, 115)"
     opacity="0.6"
     cx="1250.191463988248"
     cy="568.81586006603"
     r="3"
     id="circle10" />
  <circle
     class="sample"
     stroke="none"
     fill="rgb(86, 101, 115)"
     opacity="0.6"
     cx="1225.5054804906642"
     cy="641.9045927321414"
     r="3"
     id="circle12" />
  <circle
     class="sample"
     stroke="none"
     fill="rgb(86, 101, 115)"
     opacity="0.6"
     cx="1162.2625597243077"
     cy="640.1172116271246"
     r="3"
     id="circle14" />
  <circle
     class="sample"
     stroke="none"
     fill="rgb(86, 101, 115)"
     opacity="0.6"
     cx="1111.0661565835896"
     cy="628.987143786936"
     r="3"
     id="circle16" />
  <circle
     class="sample"
     stroke="none"
     fill="rgb(86, 101, 115)"
     opacity="0.6"
     cx="1076.412075728267"
     cy="661.6383581075415"
     r="3"
     id="circle18" />
  <circle
     class="sample"
     stroke="none"
     fill="rgb(86, 101, 115)"
     opacity="0.6"
     cx="1055.5731279382633"
     cy="671.1483718227437"
     r="3"
     id="circle20" />
  <circle
     class="sample"
     stroke="none"
     fill="rgb(86, 101, 115)"
     opacity="0.6"
     cx="1021.4399836071157"
     cy="672.4660243969469"
     r="3"
     id="circle22" />
  <circle
     class="sample"
     stroke="none"
     fill="rgb(86, 101, 115)"
     opacity="0.6"
     cx="952.6825959493563"
     cy="682.2823844711944"
     r="3"
     id="circle24" />
  <circle
     class="sample"
     stroke="none"
     fill="rgb(86, 101, 115)"
     opacity="0.6"
     cx="928.5646020355101"
     cy="629.570660269706"
     r="3"
     id="circle26" />
  <circle
     class="sample"
     stroke="none"
     fill="rgb(86, 101, 115)"
     opacity="0.6"
     cx="945.4940735642223"
     cy="625.0026242871315"
     r="3"
     id="circle28" />
  <circle
     class="sample"
     stroke="none"
     fill="rgb(86, 101, 115)"
     opacity="0.6"
     cx="887.7811814792345"
     cy="635.9510099120782"
     r="3"
     id="circle30" />
  <circle
     class="sample"
     stroke="none"
     fill="rgb(86, 101, 115)"
     opacity="0.6"
     cx="806.3027771443456"
     cy="574.3965245619946"
     r="3"
     id="circle32" />
  <circle
     class="sample"
     stroke="none"
     fill="rgb(86, 101, 115)"
     opacity="0.6"
     cx="767.8589925737161"
     cy="552.5303281947705"
     r="3"
     id="circle34" />
  <circle
     class="sample"
     stroke="none"
     fill="rgb(86, 101, 115)"
     opacity="0.6"
     cx="780.8338350993179"
     cy="536.1972912099609"
     r="3"
     id="circle36" />
  <circle
     class="sample"
     stroke="none"
     fill="rgb(86, 101, 115)"
     opacity="0.6"
     cx="741.8835881680482"
     cy="565.3437021204353"
     r="3"
     id="circle38" />
  <circle
     class="sample"
     stroke="none"
     fill="rgb(86, 101, 115)"
     opacity="0.6"
     cx="706.2241179763259"
     cy="470.4308609052601"
     r="3"
     id="circle40" />
  <circle
     class="sample"
     stroke="none"
     fill="rgb(86, 101, 115)"
     opacity="0.6"
     cx="693.9460765427713"
     cy="471.40354624066106"
     r="3"
     id="circle42" />
  <circle
     class="sample"
     stroke="none"
     fill="rgb(86, 101, 115)"
     opacity="0.6"
     cx="668.0694055740873"
     cy="427.812600920468"
     r="3"
     id="circle44" />
  <circle
     class="sample"
     stroke="none"
     fill="rgb(86, 101, 115)"
     opacity="0.6"
     cx="672.3471353957794"
     cy="386.1751911370995"
     r="3"
     id="circle46" />
  <circle
     class="sample"
     stroke="none"
     fill="rgb(86, 101, 115)"
     opacity="0.6"
     cx="649.855520030868"
     cy="425.4756029101908"
     r="3"
     id="circle48" />
  <circle
     class="sample"
     stroke="none"
     fill="rgb(86, 101, 115)"
     opacity="0.6"
     cx="635.1841604842749"
     cy="361.0953334820076"
     r="3"
     id="circle50" />
  <circle
     class="sample"
     stroke="none"
     fill="rgb(86, 101, 115)"
     opacity="0.6"
     cx="551.5097999757992"
     cy="335.88846636142966"
     r="3"
     id="circle52" />
  <circle
     class="sample"
     stroke="none"
     fill="rgb(86, 101, 115)"
     opacity="0.6"
     cx="556.9236072288215"
     cy="339.266025512709"
     r="3"
     id="circle54" />
  <circle
     class="sample"
     stroke="none"
     fill="rgb(86, 101, 115)"
     opacity="0.6"
     cx="495.5835588037404"
     cy="341.7151921018941"
     r="3"
     id="circle56" />
  <circle
     class="sample"
     stroke="none"
     fill="rgb(86, 101, 115)"
     opacity="0.6"
     cx="549.5240042905016"
     cy="287.938348377009"
     r="3"
     id="circle58" />
  <circle
     class="sample"
     stroke="none"
     fill="rgb(86, 101, 115)"
     opacity="0.6"
     cx="493.7801362437986"
     cy="277.5467616899734"
     r="3"
     id="circle60" />
  <circle
     class="sample"
     stroke="none"
     fill="rgb(86, 101, 115)"
     opacity="0.6"
     cx="400.9311909569812"
     cy="261.9436573515133"
     r="3"
     id="circle62" />
  <circle
     class="sample"
     stroke="none"
     fill="rgb(86, 101, 115)"
     opacity="0.6"
     cx="425.06840151578933"
     cy="274.01152241681285"
     r="3"
     id="circle64" />
  <circle
     class="sample"
     stroke="none"
     fill="rgb(86, 101, 115)"
     opacity="0.6"
     cx="395.88294226145086"
     cy="259.9975907569355"
     r="3"
     id="circle66" />
  <circle
     class="sample"
     stroke="none"
     fill="rgb(86, 101, 115)"
     opacity="0.6"
     cx="302.7751153703769"
     cy="261.9590962353833"
     r="3"
     id="circle68" />
  <circle
     class="sample"
     stroke="none"
     fill="rgb(86, 101, 115)"
     opacity="0.6"
     cx="277.2551630404133"
     cy="246.02631463102463"
     r="3"
     id="circle70" />
  <circle
     class="sample"
     stroke="none"
     fill="rgb(86, 101, 115)"
     opacity="0.6"
     cx="247.01501776334933"
     cy="230.30810160312097"
     r="3"
     id="circle72" />
  <circle
     class="sample"
     stroke="none"
     fill="rgb(86, 101, 115)"
     opacity="0.6"
     cx="197.6491963855345"
     cy="311.8667501626795"
     r="3"
     id="circle74" />
  <circle
     class="sample"
     stroke="none"
     fill="rgb(86, 101, 115)"
     opacity="0.6"
     cx="139.96830096711966"
     cy="324.75427583965563"
     r="3"
     id="circle76" />
  <circle
     class="sample"
     stroke="none"
     fill="rgb(86, 101, 115)"
     opacity="0.6"
     cx="181.83350715310092"
     cy="324.29881915600345"
     r="3"
     id="circle78" />
  <circle
     class="sample"
     stroke="none"
     fill="rgb(86, 101, 115)"
     opacity="0.6"
     cx="72.29028883847229"
     cy="366.17070151245025"
     r="3"
     id="circle80" />
  <circle
     class="sample"
     stroke="none"
     fill="rgb(86, 101, 115)"
     opacity="0.6"
     cx="112.15715088907751"
     cy="400.9801732908878"
     r="3"
     id="circle82" />
  <circle
     class="sample"
     stroke="none"
     fill="rgb(86, 101, 115)"
     opacity="0.6"
     cx="96.30464278677621"
     cy="507.0780416643006"
     r="3"
     id="circle84" />
  <circle
     class="sample"
     stroke="none"
     fill="rgb(86, 101, 115)"
     opacity="0.6"
     cx="119.7597244148008"
     cy="499.6668278070683"
     r="3"
     id="circle86" />
  <circle
     class="sample"
     stroke="none"
     fill="rgb(86, 101, 115)"
     opacity="0.6"
     cx="145.1654440496026"
     cy="554.9884423387612"
     r="3"
     id="circle88" />
  <circle
     class="sample"
     stroke="none"
     fill="rgb(86, 101, 115)"
     opacity="0.6"
     cx="193.8567529142957"
     cy="608.1761793339659"
     r="3"
     id="circle90" />
  <circle
     class="sample"
     stroke="none"
     fill="rgb(86, 101, 115)"
     opacity="0.6"
     cx="158.76666587026955"
     cy="633.3982836392731"
     r="3"
     id="circle92" />
  <circle
     class="sample"
     stroke="none"
     fill="rgb(86, 101, 115)"
     opacity="0.6"
     cx="194.41498889760584"
     cy="636.2664634627926"
     r="3"
     id="circle94" />
  <circle
     class="sample"
     cx="276.04404"
     cy="638.12268"
     r="3"
     id="circle96"
     style="opacity:0.6;fill:#566573;stroke:none" />
  <circle
     class="sample"
     stroke="none"
     fill="rgb(86, 101, 115)"
     opacity="0.6"
     cx="292.05252319299933"
     cy="701.9421319209213"
     r="3"
     id="circle98" />
  <circle
     class="sample"
     stroke="none"
     fill="rgb(86, 101, 115)"
     opacity="0.6"
     cx="386.43292916141127"
     cy="694.5449447227763"
     r="3"
     id="circle100" />
  <circle
     class="sample"
     stroke="none"
     fill="rgb(86, 101, 115)"
     opacity="0.6"
     cx="379.00509770258407"
     cy="659.5906815878591"
     r="3"
     id="circle102" />
  <circle
     class="sample"
     stroke="none"
     fill="rgb(86, 101, 115)"
     opacity="0.6"
     cx="418.29334872998635"
     cy="649.1466012884395"
     r="3"
     id="circle104" />
  <circle
     class="sample"
     stroke="none"
     fill="rgb(86, 101, 115)"
     opacity="0.6"
     cx="466.5874036794447"
     cy="658.7754242049454"
     r="3"
     id="circle106" />
  <circle
     class="sample"
     stroke="none"
     fill="rgb(86, 101, 115)"
     opacity="0.6"
     cx="529.5804363881224"
     cy="642.8169263474009"
     r="3"
     id="circle108" />
  <circle
     class="sample"
     stroke="none"
     fill="rgb(86, 101, 115)"
     opacity="0.6"
     cx="531.0864800545789"
     cy="607.9544854219628"
     r="3"
     id="circle110" />
  <circle
     class="sample"
     stroke="none"
     fill="rgb(86, 101, 115)"
     opacity="0.6"
     cx="556.3567096267852"
     cy="593.2233281625407"
     r="3"
     id="circle112" />
  <circle
     class="ball"
     opacity="0.2"
     fill="rgb(93, 221, 123)"
     stroke="rgb(33, 186, 69)"
     stroke-width="2"
     cx="1288.605501368563"
     cy="444.0813395155908"
     r="50"
     id="circle114" />
  <circle
     class="ball"
     opacity="0.2"
     fill="rgb(93, 221, 123)"
     stroke="rgb(33, 186, 69)"
     stroke-width="2"
     cx="1280.806104632664"
     cy="483.9775226868163"
     r="50"
     id="circle116" />
  <circle
     class="ball"
     opacity="0.2"
     fill="rgb(93, 221, 123)"
     stroke="rgb(33, 186, 69)"
     stroke-width="2"
     cx="1262.1630882451668"
     cy="520.8007301602507"
     r="50"
     id="circle118" />
  <circle
     class="ball"
     opacity="0.2"
     fill="rgb(93, 221, 123)"
     stroke="rgb(33, 186, 69)"
     stroke-width="2"
     cx="1250.191463988248"
     cy="568.81586006603"
     r="50"
     id="circle120" />
  <circle
     class="ball"
     opacity="0.2"
     fill="rgb(93, 221, 123)"
     stroke="rgb(33, 186, 69)"
     stroke-width="2"
     cx="1225.5054804906642"
     cy="641.9045927321414"
     r="50"
     id="circle122" />
  <circle
     class="ball"
     opacity="0.2"
     fill="rgb(93, 221, 123)"
     stroke="rgb(33, 186, 69)"
     stroke-width="2"
     cx="1162.2625597243077"
     cy="640.1172116271246"
     r="50"
     id="circle124" />
  <circle
     class="ball"
     opacity="0.2"
     fill="rgb(93, 221, 123)"
     stroke="rgb(33, 186, 69)"
     stroke-width="2"
     cx="1111.0661565835896"
     cy="628.987143786936"
     r="50"
     id="circle126" />
  <circle
     class="ball"
     opacity="0.2"
     fill="rgb(93, 221, 123)"
     stroke="rgb(33, 186, 69)"
     stroke-width="2"
     cx="1076.412075728267"
     cy="661.6383581075415"
     r="50"
     id="circle128" />
  <circle
     class="ball"
     opacity="0.2"
     fill="rgb(93, 221, 123)"
     stroke="rgb(33, 186, 69)"
     stroke-width="2"
     cx="1055.5731279382633"
     cy="671.1483718227437"
     r="50"
     id="circle130" />
  <circle
     class="ball"
     opacity="0.2"
     fill="rgb(93, 221, 123)"
     stroke="rgb(33, 186, 69)"
     stroke-width="2"
     cx="1021.4399836071157"
     cy="672.4660243969469"
     r="50"
     id="circle132" />
  <circle
     class="ball"
     opacity="0.2"
     fill="rgb(93, 221, 123)"
     stroke="rgb(33, 186, 69)"
     stroke-width="2"
     cx="952.6825959493563"
     cy="682.2823844711944"
     r="50"
     id="circle134" />
  <circle
     class="ball"
     opacity="0.2"
     fill="rgb(93, 221, 123)"
     stroke="rgb(33, 186, 69)"
     stroke-width="2"
     cx="928.5646020355101"
     cy="629.570660269706"
     r="50"
     id="circle136" />
  <circle
     class="ball"
     opacity="0.2"
     fill="rgb(93, 221, 123)"
     stroke="rgb(33, 186, 69)"
     stroke-width="2"
     cx="945.4940735642223"
     cy="625.0026242871315"
     r="50"
     id="circle138" />
  <circle
     class="ball"
     cx="885.78119"
     cy="635.95099"
     r="50"
     id="circle140"
     style="opacity:0.2;fill:#5ddd7b;stroke:#21ba45;stroke-width:2" />
  <circle
     class="ball"
     opacity="0.2"
     fill="rgb(93, 221, 123)"
     stroke="rgb(33, 186, 69)"
     stroke-width="2"
     cx="806.3027771443456"
     cy="574.3965245619946"
     r="50"
     id="circle142" />
  <circle
     class="ball"
     opacity="0.2"
     fill="rgb(93, 221, 123)"
     stroke="rgb(33, 186, 69)"
     stroke-width="2"
     cx="767.8589925737161"
     cy="552.5303281947705"
     r="50"
     id="circle144" />
  <circle
     class="ball"
     opacity="0.2"
     fill="rgb(93, 221, 123)"
     stroke="rgb(33, 186, 69)"
     stroke-width="2"
     cx="780.8338350993179"
     cy="536.1972912099609"
     r="50"
     id="circle146" />
  <circle
     class="ball"
     opacity="0.2"
     fill="rgb(93, 221, 123)"
     stroke="rgb(33, 186, 69)"
     stroke-width="2"
     cx="741.8835881680482"
     cy="565.3437021204353"
     r="50"
     id="circle148" />
  <circle
     class="ball"
     opacity="0.2"
     fill="rgb(93, 221, 123)"
     stroke="rgb(33, 186, 69)"
     stroke-width="2"
     cx="706.2241179763259"
     cy="470.4308609052601"
     r="50"
     id="circle150" />
  <circle
     class="ball"
     opacity="0.2"
     fill="rgb(93, 221, 123)"
     stroke="rgb(33, 186, 69)"
     stroke-width="2"
     cx="693.9460765427713"
     cy="471.40354624066106"
     r="50"
     id="circle152" />
  <circle
     class="ball"
     opacity="0.2"
     fill="rgb(93, 221, 123)"
     stroke="rgb(33, 186, 69)"
     stroke-width="2"
     cx="668.0694055740873"
     cy="427.812600920468"
     r="50"
     id="circle154" />
  <circle
     class="ball"
     opacity="0.2"
     fill="rgb(93, 221, 123)"
     stroke="rgb(33, 186, 69)"
     stroke-width="2"
     cx="672.3471353957794"
     cy="386.1751911370995"
     r="50"
     id="circle156" />
  <circle
     class="ball"
     opacity="0.2"
     fill="rgb(93, 221, 123)"
     stroke="rgb(33, 186, 69)"
     stroke-width="2"
     cx="649.855520030868"
     cy="425.4756029101908"
     r="50"
     id="circle158" />
  <circle
     class="ball"
     opacity="0.2"
     fill="rgb(93, 221, 123)"
     stroke="rgb(33, 186, 69)"
     stroke-width="2"
     cx="635.1841604842749"
     cy="361.0953334820076"
     r="50"
     id="circle160" />
  <circle
     class="ball"
     opacity="0.2"
     fill="rgb(93, 221, 123)"
     stroke="rgb(33, 186, 69)"
     stroke-width="2"
     cx="551.5097999757992"
     cy="335.88846636142966"
     r="50"
     id="circle162" />
  <circle
     class="ball"
     opacity="0.2"
     fill="rgb(93, 221, 123)"
     stroke="rgb(33, 186, 69)"
     stroke-width="2"
     cx="556.9236072288215"
     cy="339.266025512709"
     r="50"
     id="circle164" />
  <circle
     class="ball"
     opacity="0.2"
     fill="rgb(93, 221, 123)"
     stroke="rgb(33, 186, 69)"
     stroke-width="2"
     cx="495.5835588037404"
     cy="341.7151921018941"
     r="50"
     id="circle166" />
  <circle
     class="ball"
     opacity="0.2"
     fill="rgb(93, 221, 123)"
     stroke="rgb(33, 186, 69)"
     stroke-width="2"
     cx="549.5240042905016"
     cy="287.938348377009"
     r="50"
     id="circle168" />
  <circle
     class="ball"
     opacity="0.2"
     fill="rgb(93, 221, 123)"
     stroke="rgb(33, 186, 69)"
     stroke-width="2"
     cx="493.7801362437986"
     cy="277.5467616899734"
     r="50"
     id="circle170" />
  <circle
     class="ball"
     opacity="0.2"
     fill="rgb(93, 221, 123)"
     stroke="rgb(33, 186, 69)"
     stroke-width="2"
     cx="400.9311909569812"
     cy="261.9436573515133"
     r="50"
     id="circle172" />
  <circle
     class="ball"
     opacity="0.2"
     fill="rgb(93, 221, 123)"
     stroke="rgb(33, 186, 69)"
     stroke-width="2"
     cx="425.06840151578933"
     cy="274.01152241681285"
     r="50"
     id="circle174" />
  <circle
     class="ball"
     opacity="0.2"
     fill="rgb(93, 221, 123)"
     stroke="rgb(33, 186, 69)"
     stroke-width="2"
     cx="395.88294226145086"
     cy="259.9975907569355"
     r="50"
     id="circle176" />
  <circle
     class="ball"
     opacity="0.2"
     fill="rgb(93, 221, 123)"
     stroke="rgb(33, 186, 69)"
     stroke-width="2"
     cx="302.7751153703769"
     cy="261.9590962353833"
     r="50"
     id="circle178" />
  <circle
     class="ball"
     opacity="0.2"
     fill="rgb(93, 221, 123)"
     stroke="rgb(33, 186, 69)"
     stroke-width="2"
     cx="277.2551630404133"
     cy="246.02631463102463"
     r="50"
     id="circle180" />
  <circle
     class="ball"
     opacity="0.2"
     fill="rgb(93, 221, 123)"
     stroke="rgb(33, 186, 69)"
     stroke-width="2"
     cx="247.01501776334933"
     cy="230.30810160312097"
     r="50"
     id="circle182" />
  <circle
     class="ball"
     opacity="0.2"
     fill="rgb(93, 221, 123)"
     stroke="rgb(33, 186, 69)"
     stroke-width="2"
     cx="197.6491963855345"
     cy="311.8667501626795"
     r="50"
     id="circle184" />
  <circle
     class="ball"
     opacity="0.2"
     fill="rgb(93, 221, 123)"
     stroke="rgb(33, 186, 69)"
     stroke-width="2"
     cx="139.96830096711966"
     cy="324.75427583965563"
     r="50"
     id="circle186" />
  <circle
     class="ball"
     opacity="0.2"
     fill="rgb(93, 221, 123)"
     stroke="rgb(33, 186, 69)"
     stroke-width="2"
     cx="181.83350715310092"
     cy="324.29881915600345"
     r="50"
     id="circle188" />
  <circle
     class="ball"
     opacity="0.2"
     fill="rgb(93, 221, 123)"
     stroke="rgb(33, 186, 69)"
     stroke-width="2"
     cx="72.29028883847229"
     cy="366.17070151245025"
     r="50"
     id="circle190" />
  <circle
     class="ball"
     opacity="0.2"
     fill="rgb(93, 221, 123)"
     stroke="rgb(33, 186, 69)"
     stroke-width="2"
     cx="112.15715088907751"
     cy="400.9801732908878"
     r="50"
     id="circle192" />
  <circle
     class="ball"
     opacity="0.2"
     fill="rgb(93, 221, 123)"
     stroke="rgb(33, 186, 69)"
     stroke-width="2"
     cx="96.30464278677621"
     cy="507.0780416643006"
     r="50"
     id="circle194" />
  <circle
     class="ball"
     opacity="0.2"
     fill="rgb(93, 221, 123)"
     stroke="rgb(33, 186, 69)"
     stroke-width="2"
     cx="119.7597244148008"
     cy="499.6668278070683"
     r="50"
     id="circle196" />
  <circle
     class="ball"
     opacity="0.2"
     fill="rgb(93, 221, 123)"
     stroke="rgb(33, 186, 69)"
     stroke-width="2"
     cx="145.1654440496026"
     cy="554.9884423387612"
     r="50"
     id="circle198" />
  <circle
     class="ball"
     opacity="0.2"
     fill="rgb(93, 221, 123)"
     stroke="rgb(33, 186, 69)"
     stroke-width="2"
     cx="193.8567529142957"
     cy="608.1761793339659"
     r="50"
     id="circle200" />
  <circle
     class="ball"
     opacity="0.2"
     fill="rgb(93, 221, 123)"
     stroke="rgb(33, 186, 69)"
     stroke-width="2"
     cx="158.76666587026955"
     cy="633.3982836392731"
     r="50"
     id="circle202" />
  <circle
     class="ball"
     opacity="0.2"
     fill="rgb(93, 221, 123)"
     stroke="rgb(33, 186, 69)"
     stroke-width="2"
     cx="194.41498889760584"
     cy="636.2664634627926"
     r="50"
     id="circle204" />
  <circle
     class="ball"
     cx="273.9953"
     cy="637.25787"
     r="50"
     id="circle206"
     style="opacity:0.2;fill:#5ddd7b;stroke:#21ba45;stroke-width:2" />
  <circle
     class="ball"
     opacity="0.2"
     fill="rgb(93, 221, 123)"
     stroke="rgb(33, 186, 69)"
     stroke-width="2"
     cx="292.05252319299933"
     cy="701.9421319209213"
     r="50"
     id="circle208" />
  <circle
     class="ball"
     opacity="0.2"
     fill="rgb(93, 221, 123)"
     stroke="rgb(33, 186, 69)"
     stroke-width="2"
     cx="386.43292916141127"
     cy="694.5449447227763"
     r="50"
     id="circle210" />
  <circle
     class="ball"
     opacity="0.2"
     fill="rgb(93, 221, 123)"
     stroke="rgb(33, 186, 69)"
     stroke-width="2"
     cx="379.00509770258407"
     cy="659.5906815878591"
     r="50"
     id="circle212" />
  <circle
     class="ball"
     opacity="0.2"
     fill="rgb(93, 221, 123)"
     stroke="rgb(33, 186, 69)"
     stroke-width="2"
     cx="418.29334872998635"
     cy="649.1466012884395"
     r="50"
     id="circle214" />
  <circle
     class="ball"
     opacity="0.2"
     fill="rgb(93, 221, 123)"
     stroke="rgb(33, 186, 69)"
     stroke-width="2"
     cx="466.5874036794447"
     cy="658.7754242049454"
     r="50"
     id="circle216" />
  <circle
     class="ball"
     opacity="0.2"
     fill="rgb(93, 221, 123)"
     stroke="rgb(33, 186, 69)"
     stroke-width="2"
     cx="529.5804363881224"
     cy="642.8169263474009"
     r="50"
     id="circle218" />
  <circle
     class="ball"
     opacity="0.2"
     fill="rgb(93, 221, 123)"
     stroke="rgb(33, 186, 69)"
     stroke-width="2"
     cx="531.0864800545789"
     cy="607.9544854219628"
     r="50"
     id="circle220" />
  <circle
     class="ball"
     opacity="0.2"
     fill="rgb(93, 221, 123)"
     stroke="rgb(33, 186, 69)"
     stroke-width="2"
     cx="556.3567096267852"
     cy="593.2233281625407"
     r="50"
     id="circle222" />
  <circle
     class="sample"
     stroke="none"
     fill="rgb(86, 101, 115)"
     opacity="0.6"
     cx="580.610970427424"
     cy="552.7016369858372"
     r="3"
     id="circle224" />
  <circle
     class="sample"
     stroke="none"
     fill="rgb(86, 101, 115)"
     opacity="0.6"
     cx="603.6869972529178"
     cy="527.7426356801553"
     r="3"
     id="circle226" />
  <circle
     class="sample"
     stroke="none"
     fill="rgb(86, 101, 115)"
     opacity="0.6"
     cx="646.9598288524926"
     cy="546.699848556687"
     r="3"
     id="circle228" />
  <circle
     class="sample"
     stroke="none"
     fill="rgb(86, 101, 115)"
     opacity="0.6"
     cx="618.2975790587451"
     cy="500.0893801153452"
     r="3"
     id="circle230" />
  <circle
     class="sample"
     stroke="none"
     fill="rgb(86, 101, 115)"
     opacity="0.6"
     cx="683.0408327234861"
     cy="457.65727720641206"
     r="3"
     id="circle232" />
  <circle
     class="sample"
     stroke="none"
     fill="rgb(86, 101, 115)"
     opacity="0.6"
     cx="710.3239810491261"
     cy="441.9431914209606"
     r="3"
     id="circle234" />
  <circle
     class="sample"
     stroke="none"
     fill="rgb(86, 101, 115)"
     opacity="0.6"
     cx="744.3527700296581"
     cy="391.68920351671113"
     r="3"
     id="circle236" />
  <circle
     class="sample"
     stroke="none"
     fill="rgb(86, 101, 115)"
     opacity="0.6"
     cx="784.7438698031948"
     cy="413.4591850693456"
     r="3"
     id="circle238" />
  <circle
     class="sample"
     stroke="none"
     fill="rgb(86, 101, 115)"
     opacity="0.6"
     cx="770.7951950793808"
     cy="360.1055530001466"
     r="3"
     id="circle240" />
  <circle
     class="sample"
     stroke="none"
     fill="rgb(86, 101, 115)"
     opacity="0.6"
     cx="801.3984856315988"
     cy="363.6073364992245"
     r="3"
     id="circle242" />
  <circle
     class="sample"
     stroke="none"
     fill="rgb(86, 101, 115)"
     opacity="0.6"
     cx="847.2862011086943"
     cy="339.274479034702"
     r="3"
     id="circle244" />
  <circle
     class="sample"
     stroke="none"
     fill="rgb(86, 101, 115)"
     opacity="0.6"
     cx="825.4844275909409"
     cy="311.658287101596"
     r="3"
     id="circle246" />
  <circle
     class="sample"
     stroke="none"
     fill="rgb(86, 101, 115)"
     opacity="0.6"
     cx="873.4146206503701"
     cy="312.2162886108655"
     r="3"
     id="circle248" />
  <circle
     class="sample"
     stroke="none"
     fill="rgb(86, 101, 115)"
     opacity="0.6"
     cx="925.2997690527613"
     cy="312.9508989427721"
     r="3"
     id="circle250" />
  <circle
     class="sample"
     stroke="none"
     fill="rgb(86, 101, 115)"
     opacity="0.6"
     cx="948.1591491053076"
     cy="287.23320824987405"
     r="3"
     id="circle252" />
  <circle
     class="sample"
     stroke="none"
     fill="rgb(86, 101, 115)"
     opacity="0.6"
     cx="976.4908351296679"
     cy="255.69381733101105"
     r="3"
     id="circle254" />
  <circle
     class="sample"
     stroke="none"
     fill="rgb(86, 101, 115)"
     opacity="0.6"
     cx="1031.7877772256188"
     cy="232.19913356146284"
     r="3"
     id="circle256" />
  <circle
     class="sample"
     stroke="none"
     fill="rgb(86, 101, 115)"
     opacity="0.6"
     cx="1108.3060417470099"
     cy="250.53753142594715"
     r="3"
     id="circle258" />
  <circle
     class="sample"
     stroke="none"
     fill="rgb(86, 101, 115)"
     opacity="0.6"
     cx="1104.8123269757086"
     cy="292.529277598763"
     r="3"
     id="circle260" />
  <circle
     class="sample"
     stroke="none"
     fill="rgb(86, 101, 115)"
     opacity="0.6"
     cx="1182.994563308517"
     cy="311.23610235583726"
     r="3"
     id="circle262" />
  <circle
     class="sample"
     stroke="none"
     fill="rgb(86, 101, 115)"
     opacity="0.6"
     cx="1178.1603254112738"
     cy="330.35025944787554"
     r="3"
     id="circle264" />
  <circle
     class="sample"
     stroke="none"
     fill="rgb(86, 101, 115)"
     opacity="0.6"
     cx="1237.5832650529603"
     cy="368.8770914186181"
     r="3"
     id="circle266" />
  <circle
     class="sample"
     stroke="none"
     fill="rgb(86, 101, 115)"
     opacity="0.6"
     cx="1261.863855536468"
     cy="347.85605968288405"
     r="3"
     id="circle268" />
  <circle
     class="sample"
     stroke="none"
     fill="rgb(86, 101, 115)"
     opacity="0.6"
     cx="1271.8012418260664"
     cy="375.6812930887213"
     r="3"
     id="circle270" />
  <circle
     class="ball"
     opacity="0.2"
     fill="rgb(93, 221, 123)"
     stroke="rgb(33, 186, 69)"
     stroke-width="2"
     cx="580.610970427424"
     cy="552.7016369858372"
     r="50"
     id="circle272" />
  <circle
     class="ball"
     opacity="0.2"
     fill="rgb(93, 221, 123)"
     stroke="rgb(33, 186, 69)"
     stroke-width="2"
     cx="603.6869972529178"
     cy="527.7426356801553"
     r="50"
     id="circle274" />
  <circle
     class="ball"
     opacity="0.2"
     fill="rgb(93, 221, 123)"
     stroke="rgb(33, 186, 69)"
     stroke-width="2"
     cx="646.9598288524926"
     cy="546.699848556687"
     r="50"
     id="circle276" />
  <circle
     class="ball"
     opacity="0.2"
     fill="rgb(93, 221, 123)"
     stroke="rgb(33, 186, 69)"
     stroke-width="2"
     cx="618.2975790587451"
     cy="500.0893801153452"
     r="50"
     id="circle278" />
  <circle
     class="ball"
     opacity="0.2"
     fill="rgb(93, 221, 123)"
     stroke="rgb(33, 186, 69)"
     stroke-width="2"
     cx="683.0408327234861"
     cy="457.65727720641206"
     r="50"
     id="circle280" />
  <circle
     class="ball"
     opacity="0.2"
     fill="rgb(93, 221, 123)"
     stroke="rgb(33, 186, 69)"
     stroke-width="2"
     cx="710.3239810491261"
     cy="441.9431914209606"
     r="50"
     id="circle282" />
  <circle
     class="ball"
     opacity="0.2"
     fill="rgb(93, 221, 123)"
     stroke="rgb(33, 186, 69)"
     stroke-width="2"
     cx="744.3527700296581"
     cy="391.68920351671113"
     r="50"
     id="circle284" />
  <circle
     class="ball"
     opacity="0.2"
     fill="rgb(93, 221, 123)"
     stroke="rgb(33, 186, 69)"
     stroke-width="2"
     cx="784.7438698031948"
     cy="413.4591850693456"
     r="50"
     id="circle286" />
  <circle
     class="ball"
     opacity="0.2"
     fill="rgb(93, 221, 123)"
     stroke="rgb(33, 186, 69)"
     stroke-width="2"
     cx="770.7951950793808"
     cy="360.1055530001466"
     r="50"
     id="circle288" />
  <circle
     class="ball"
     opacity="0.2"
     fill="rgb(93, 221, 123)"
     stroke="rgb(33, 186, 69)"
     stroke-width="2"
     cx="801.3984856315988"
     cy="363.6073364992245"
     r="50"
     id="circle290" />
  <circle
     class="ball"
     opacity="0.2"
     fill="rgb(93, 221, 123)"
     stroke="rgb(33, 186, 69)"
     stroke-width="2"
     cx="847.2862011086943"
     cy="339.274479034702"
     r="50"
     id="circle292" />
  <circle
     class="ball"
     opacity="0.2"
     fill="rgb(93, 221, 123)"
     stroke="rgb(33, 186, 69)"
     stroke-width="2"
     cx="825.4844275909409"
     cy="311.658287101596"
     r="50"
     id="circle294" />
  <circle
     class="ball"
     opacity="0.2"
     fill="rgb(93, 221, 123)"
     stroke="rgb(33, 186, 69)"
     stroke-width="2"
     cx="873.4146206503701"
     cy="312.2162886108655"
     r="50"
     id="circle296" />
  <circle
     class="ball"
     opacity="0.2"
     fill="rgb(93, 221, 123)"
     stroke="rgb(33, 186, 69)"
     stroke-width="2"
     cx="925.2997690527613"
     cy="312.9508989427721"
     r="50"
     id="circle298" />
  <circle
     class="ball"
     opacity="0.2"
     fill="rgb(93, 221, 123)"
     stroke="rgb(33, 186, 69)"
     stroke-width="2"
     cx="948.1591491053076"
     cy="287.23320824987405"
     r="50"
     id="circle300" />
  <circle
     class="ball"
     opacity="0.2"
     fill="rgb(93, 221, 123)"
     stroke="rgb(33, 186, 69)"
     stroke-width="2"
     cx="976.4908351296679"
     cy="255.69381733101105"
     r="50"
     id="circle302" />
  <circle
     class="ball"
     opacity="0.2"
     fill="rgb(93, 221, 123)"
     stroke="rgb(33, 186, 69)"
     stroke-width="2"
     cx="1031.7877772256188"
     cy="232.19913356146284"
     r="50"
     id="circle304" />
  <circle
     class="ball"
     opacity="0.2"
     fill="rgb(93, 221, 123)"
     stroke="rgb(33, 186, 69)"
     stroke-width="2"
     cx="1108.3060417470099"
     cy="250.53753142594715"
     r="50"
     id="circle306" />
  <circle
     class="ball"
     opacity="0.2"
     fill="rgb(93, 221, 123)"
     stroke="rgb(33, 186, 69)"
     stroke-width="2"
     cx="1104.8123269757086"
     cy="292.529277598763"
     r="50"
     id="circle308" />
  <circle
     class="ball"
     opacity="0.2"
     fill="rgb(93, 221, 123)"
     stroke="rgb(33, 186, 69)"
     stroke-width="2"
     cx="1182.994563308517"
     cy="311.23610235583726"
     r="50"
     id="circle310" />
  <circle
     class="ball"
     opacity="0.2"
     fill="rgb(93, 221, 123)"
     stroke="rgb(33, 186, 69)"
     stroke-width="2"
     cx="1178.1603254112738"
     cy="330.35025944787554"
     r="50"
     id="circle312" />
  <circle
     class="ball"
     opacity="0.2"
     fill="rgb(93, 221, 123)"
     stroke="rgb(33, 186, 69)"
     stroke-width="2"
     cx="1237.5832650529603"
     cy="368.8770914186181"
     r="50"
     id="circle314" />
  <circle
     class="ball"
     opacity="0.2"
     fill="rgb(93, 221, 123)"
     stroke="rgb(33, 186, 69)"
     stroke-width="2"
     cx="1261.863855536468"
     cy="347.85605968288405"
     r="50"
     id="circle316" />
  <circle
     class="ball"
     opacity="0.2"
     fill="rgb(93, 221, 123)"
     stroke="rgb(33, 186, 69)"
     stroke-width="2"
     cx="1271.8012418260664"
     cy="375.6812930887213"
     r="50"
     id="circle318" />
</svg>
